#!OML:ASF F:\VICON\USERDATA\INSTALL\rory3\rory3.ASF
:FULLY-SPECIFIED
:DEGREES
343
root -0.455522 23.7049 4.56765 -167.436 -6.61751 -182.938
lowerback 8.79889 -1.36314 -5.68978
upperback 0.676505 -2.36265 1.77102
thorax -3.92854 -1.09041 5.34192
lowerneck -17.584 2.4943 -8.89129
upperneck 37.822 2.54083 1.92488
head 16.3535 -1.15249 2.54119
rclavicle -4.99943e-014 0
rhumerus -30.5208 -7.47751 -75.4881
rradius 41.8428
rwrist 21.242
rhand -18.7244 5.09479
rfingers 7.12502
rthumb 7.57116 -24.7497
lclavicle -4.99943e-014 0
lhumerus -29.8689 5.24213 82.6232
lradius 32.5732
lwrist -7.21047
lhand -10.1566 25.6025
lfingers 7.12502
lthumb 15.8329 54.9751
rfemur -41.3993 -1.06184 25.7251
rtibia 58.1338
rfoot -25.7886 1.65199
rtoes 15.5891
lfemur -20.6216 4.61344 -22.2555
ltibia 43.2457
lfoot 26.1554 -1.89558
ltoes -2.65177
344
root -0.439026 23.784 4.51382 -167.772 -6.78756 -182.742
lowerback 8.82706 -1.3356 -5.59047
upperback 0.722099 -2.31871 1.79105
thorax -3.90545 -1.07323 5.30182
lowerneck -17.5363 2.50958 -8.78852
upperneck 37.9336 2.49105 1.92657
head 16.4042 -1.17245 2.51379
rclavicle 2.28602e-014 -1.39149e-014
rhumerus -30.5769 -7.49169 -75.429
rradius 41.9502
rwrist 21.1227
rhand -18.9557 4.99729
rfingers 7.12502
rthumb 7.3479 -24.8551
lclavicle 2.28602e-014 -1.39149e-014
lhumerus -29.8717 5.42173 82.4282
lradius 32.4732
lwrist -7.35984
lhand -10.3422 25.4464
lfingers 7.12502
lthumb 15.6541 54.8331
rfemur -40.0956 -0.916397 25.9391
rtibia 56.7371
rfoot -25.5334 1.3431
rtoes 15.8763
lfemur -21.7509 4.91589 -21.8456
ltibia 46.5397
lfoot 25.3988 -2.18189
ltoes -2.89876
345
root -0.421023 23.8662 4.46205 -168.13 -6.99763 -182.572
lowerback 8.9952 -1.30743 -5.56964
upperback 0.694432 -2.2871 1.84799
thorax -4.03117 -1.0525 5.35469
lowerneck -17.4021 2.51233 -8.74108
upperneck 38.0735 2.41152 1.91787
head 16.4504 -1.22269 2.48312
rclavicle -2.34566e-014 -2.78299e-015
rhumerus -30.6396 -7.56959 -75.2567
rradius 41.9248
rwrist 21.0589
rhand -19.1818 5.06327
rfingers 7.12502
rthumb 7.12971 -24.7966
lclavicle -2.34566e-014 -2.78299e-015
lhumerus -29.9726 5.66979 82.2749
lradius 32.4204
lwrist -7.40878
lhand -10.4695 25.37
lfingers 7.12502
lthumb 15.5315 54.7662
rfemur -38.7501 -0.869263 26.1463
rtibia 55.3168
rfoot -25.225 1.00953
rtoes 15.7889
lfemur -22.9083 5.1357 -21.4476
ltibia 49.8244
lfoot 24.5157 -2.71339
ltoes -4.73121
346
root -0.405221 23.9452 4.40873 -168.389 -7.19416 -182.471
lowerback 9.02372 -1.28539 -5.59814
upperback 0.669432 -2.26007 1.89178
thorax -4.07406 -1.03579 5.41609
lowerneck -17.3551 2.50979 -8.75074
upperneck 38.2069 2.3711 1.90721
head 16.5119 -1.26153 2.47074
rclavicle 6.36111e-015 -1.11319e-014
rhumerus -30.6008 -7.73949 -75.0491
rradius 41.7946
rwrist 21.0934
rhand -19.4152 5.14729
rfingers 7.12502
rthumb 6.90434 -24.7201
lclavicle 6.36111e-015 -1.11319e-014
lhumerus -30.041 5.98114 82.1413
lradius 32.4209
lwrist -7.43545
lhand -10.639 25.4048
lfingers 7.12502
lthumb 15.3682 54.8136
rfemur -37.5257 -0.830223 26.269
rtibia 53.8914
rfoot -24.8155 0.737599
rtoes 15.9159
lfemur -24.1772 5.33149 -21.1659
ltibia 53.095
lfoot 23.4089 -3.37374
ltoes -7.6604
347
root -0.388584 24.0223 4.35673 -168.593 -7.31192 -182.393
lowerback 8.92839 -1.24065 -5.64146
upperback 0.677382 -2.19914 1.87801
thorax -4.01941 -1.00674 5.41502
lowerneck -17.3536 2.49381 -8.75514
upperneck 38.3522 2.27958 1.99721
head 16.5916 -1.30411 2.49465
rclavicle 9.93923e-015 1.59028e-015
rhumerus -30.5289 -7.97864 -74.9246
rradius 41.7249
rwrist 21.0026
rhand -19.5352 5.08503
rfingers 7.12502
rthumb 6.78856 -24.7861
lclavicle 9.93923e-015 1.59028e-015
lhumerus -30.0582 6.14209 81.9676
lradius 32.4685
lwrist -7.32564
lhand -10.9924 25.4144
lfingers 7.12502
lthumb 15.0278 54.849
rfemur -36.4096 -0.750407 26.3706
rtibia 52.4535
rfoot -24.3453 0.351955
rtoes 15.5242
lfemur -25.4917 5.50817 -20.9325
ltibia 56.3437
lfoot 22.0992 -3.92437
ltoes -9.69002
348
root -0.372849 24.0986 4.30961 -168.765 -7.42809 -182.326
lowerback 8.88056 -1.19277 -5.67709
upperback 0.633453 -2.1353 1.84542
thorax -4.04712 -0.971224 5.39282
lowerneck -17.2527 2.45206 -8.75121
upperneck 38.4156 2.13134 2.10992
head 16.6074 -1.35852 2.51509
rclavicle 4.42296e-014 -7.15625e-015
rhumerus -30.5555 -8.21632 -74.8209
rradius 41.7129
rwrist 20.7215
rhand -19.6461 4.98147
rfingers 7.12502
rthumb 6.68148 -24.8931
lclavicle 4.42296e-014 -7.15625e-015
lhumerus -30.1513 6.29467 81.7667
lradius 32.58
lwrist -7.17042
lhand -11.1147 25.4484
lfingers 7.12502
lthumb 14.91 54.8918
rfemur -35.3101 -0.739305 26.4738
rtibia 50.9849
rfoot -23.8467 0.0367476
rtoes 14.8877
lfemur -26.8772 5.57099 -20.7023
ltibia 59.5949
lfoot 20.7673 -4.07174
ltoes -10.614
349
root -0.359822 24.1803 4.25951 -168.933 -7.60926 -182.238
lowerback 8.85169 -1.18089 -5.67036
upperback 0.552454 -2.11421 1.8545
thorax -4.11848 -0.95442 5.39712
lowerneck -17.1253 2.42077 -8.80694
upperneck 38.4679 2.01601 2.22008
head 16.6079 -1.4096 2.54988
rclavicle 3.67752e-014 3.97569e-016
rhumerus -30.6935 -8.31324 -74.6872
rradius 41.8159
rwrist 20.2548
rhand -19.651 4.81912
rfingers 7.12502
rthumb 6.6767 -25.0556
lclavicle 3.67752e-014 3.97569e-016
lhumerus -30.2756 6.56494 81.6042
lradius 32.6826
lwrist -6.89652
lhand -11.1774 25.6753
lfingers 7.12502
lthumb 14.8496 55.1232
rfemur -34.1569 -0.791957 26.5989
rtibia 49.4892
rfoot -23.3861 -0.302076
rtoes 14.1655
lfemur -28.2804 5.51472 -20.4184
ltibia 62.8159
lfoot 19.8497 -4.10204
ltoes -9.75949
350
root -0.347249 24.2623 4.20707 -169.162 -7.75901 -182.127
lowerback 8.79918 -1.13871 -5.65256
upperback 0.526695 -2.05174 1.86424
thorax -4.1246 -0.922118 5.38879
lowerneck -17.0128 2.37635 -8.80914
upperneck 38.5246 1.9024 2.23107
head 16.6187 -1.46628 2.53176
rclavicle -2.18663e-015 5.96354e-015
rhumerus -30.7421 -8.51494 -74.5281
rradius 41.8248
rwrist 19.9694
rhand -19.7335 4.55769
rfingers 7.12502
rthumb 6.59712 -25.3196
lclavicle -2.18663e-015 5.96354e-015
lhumerus -30.3911 6.76059 81.4882
lradius 32.8753
lwrist -6.523
lhand -11.3441 25.6988
lfingers 7.12502
lthumb 14.689 55.1584
rfemur -32.9096 -0.861327 26.7439
rtibia 47.9408
rfoot -22.9461 -0.536332
rtoes 13.9618
lfemur -29.6132 5.33424 -20.0896
ltibia 65.9963
lfoot 18.9042 -4.24985
ltoes -9.5263
351
root -0.340512 24.3394 4.15157 -169.449 -7.74515 -182.199
lowerback 8.75044 -1.0406 -5.76455
upperback 0.553593 -1.93251 1.77173
thorax -4.08463 -0.863628 5.33874
lowerneck -16.9576 2.30435 -8.85419
upperneck 38.5435 1.76286 2.31029
head 16.6238 -1.52207 2.54898
rclavicle -6.4605e-015 1.07344e-014
rhumerus -30.6474 -8.84097 -74.3873
rradius 41.6484
rwrist 19.8151
rhand -19.8716 4.39909
rfingers 7.12502
rthumb 6.46382 -25.4823
lclavicle -6.4605e-015 1.07344e-014
lhumerus -30.5238 6.83387 81.3579
lradius 33.1521
lwrist -6.05316
lhand -11.5665 25.6383
lfingers 7.12502
lthumb 14.4747 55.1134
rfemur -31.5693 -0.91942 26.6487
rtibia 46.3526
rfoot -22.4533 -0.548509
rtoes 14.2865
lfemur -30.7831 5.11546 -20.0415
ltibia 69.0877
lfoot 17.4811 -4.24144
ltoes -10.8723
352
root -0.340528 24.4194 4.0918 -169.679 -7.63501 -182.161
lowerback 8.57403 -0.932122 -5.68872
upperback 0.575531 -1.77301 1.67186
thorax -3.98935 -0.790051 5.16538
lowerneck -16.8883 2.23538 -8.93806
upperneck 38.4817 1.63833 2.45389
head 16.5794 -1.55778 2.60485
rclavicle -8.34896e-015 -1.23246e-014
rhumerus -30.5026 -9.0821 -74.2774
rradius 41.4092
rwrist 19.5702
rhand -19.9116 4.29609
rfingers 7.12502
rthumb 6.42517 -25.5865
lclavicle -8.34896e-015 -1.23246e-014
lhumerus -30.5948 6.9491 81.219
lradius 33.3639
lwrist -5.56124
lhand -11.8665 25.8943
lfingers 7.12502
lthumb 14.1856 55.3899
rfemur -30.2571 -0.949635 26.6357
rtibia 44.6909
rfoot -21.8252 -0.46139
rtoes 15.0241
lfemur -31.9534 5.07862 -19.9469
ltibia 72.0843
lfoot 15.5501 -4.14268
ltoes -12.425
353
root -0.33813 24.5059 4.03484 -169.892 -7.55303 -182.094
lowerback 8.42353 -0.838025 -5.64593
upperback 0.596705 -1.63611 1.61681
thorax -3.90337 -0.7265 5.0624
lowerneck -16.7462 2.19624 -8.93195
upperneck 38.3372 1.58843 2.45312
head 16.4725 -1.56302 2.59236
rclavicle -4.17448e-015 8.74653e-015
rhumerus -30.4089 -9.30594 -74.1683
rradius 41.2677
rwrist 19.3126
rhand -19.8837 4.26634
rfingers 7.12502
rthumb 6.45209 -25.6154
lclavicle -4.17448e-015 8.74653e-015
lhumerus -30.6236 7.09251 81.0797
lradius 33.5011
lwrist -5.11611
lhand -12.0671 26.0861
lfingers 7.12502
lthumb 13.9923 55.5952
rfemur -28.9546 -0.985201 26.6628
rtibia 42.9684
rfoot -21.1609 -0.438569
rtoes 15.5626
lfemur -33.1255 5.10439 -19.8089
ltibia 74.9493
lfoot 13.4431 -3.80544
ltoes -12.7252
